<?xml version="1.0" standalone="no"?>
<!DOCTYPE svg PUBLIC "-//W3C//DTD SVG 20010904//EN"
 "http://www.w3.org/TR/2001/REC-SVG-20010904/DTD/svg10.dtd">
<svg version="1.0" xmlns="http://www.w3.org/2000/svg"
 width="1566.000000pt" height="1566.000000pt" viewBox="0 0 1566.000000 1566.000000"
 preserveAspectRatio="xMidYMid meet">
<metadata>
Created by potrace 1.14, written by Peter Selinger 2001-2017
</metadata>
<g transform="translate(0.000000,1566.000000) scale(0.100000,-0.100000)"
fill="#000000" stroke="none">
<path d="M7458 15636 c-1 -2 -64 -6 -138 -10 -74 -4 -151 -9 -170 -11 -19 -2
-84 -9 -145 -15 -135 -13 -332 -40 -560 -75 -395 -62 -1009 -231 -1438 -396
-323 -125 -818 -361 -1132 -540 -393 -224 -868 -566 -1250 -900 -198 -173
-614 -593 -741 -749 -16 -19 -31 -37 -34 -40 -4 -3 -49 -57 -101 -120 -399
-481 -788 -1104 -1063 -1700 -219 -475 -441 -1157 -551 -1695 -30 -145 -38
-282 -17 -277 8 1 11 -6 7 -20 -2 -13 -7 -39 -9 -58 -15 -111 -26 -202 -32
-250 -3 -30 -7 -66 -9 -80 -2 -14 -6 -65 -10 -115 -4 -49 -9 -98 -10 -107 -26
-132 -26 -1090 0 -1298 2 -19 7 -69 10 -110 6 -73 10 -110 20 -187 3 -21 7
-63 10 -93 3 -30 7 -66 10 -80 2 -14 7 -45 10 -70 3 -25 11 -72 16 -104 9 -51
8 -61 -5 -68 -9 -5 -16 -21 -16 -36 0 -70 95 -477 179 -767 65 -227 215 -656
286 -820 182 -423 271 -604 445 -905 36 -63 73 -126 81 -140 8 -14 16 -27 19
-30 3 -3 30 -45 60 -95 361 -599 948 -1278 1543 -1788 207 -177 574 -450 834
-621 272 -177 630 -373 953 -521 80 -36 163 -74 185 -85 22 -10 81 -35 130
-55 50 -21 104 -43 120 -50 68 -29 364 -133 525 -184 309 -97 738 -198 1045
-246 55 -9 111 -18 125 -20 45 -7 264 -34 325 -40 33 -3 80 -7 105 -10 25 -2
81 -7 125 -10 44 -3 107 -8 140 -11 91 -9 735 -11 855 -3 130 8 261 18 320 24
25 2 74 7 110 10 36 4 110 13 165 20 55 8 123 17 150 20 190 24 578 104 870
179 215 56 690 211 830 271 17 7 86 36 155 65 306 129 755 355 1020 513 322
192 814 549 1075 778 17 14 71 61 120 104 110 95 437 422 564 565 52 58 110
123 130 145 100 110 331 399 416 520 433 616 743 1194 975 1814 192 514 323
998 409 1511 24 139 27 160 41 275 19 162 28 245 35 338 3 37 7 95 10 130 12
160 19 312 19 422 1 126 -13 581 -19 627 -2 14 -6 68 -9 120 -4 51 -9 104 -11
118 -2 14 -7 56 -10 93 -4 37 -8 76 -10 85 -1 9 -6 42 -10 72 -5 46 -41 272
-61 384 -110 633 -384 1460 -685 2066 -191 384 -470 837 -733 1190 -107 144
-243 318 -266 340 -3 3 -30 34 -60 70 -197 234 -542 585 -764 777 -87 76 -164
143 -170 148 -32 29 -258 205 -376 292 -382 284 -689 471 -1135 695 -759 381
-1565 634 -2390 748 -44 6 -91 13 -105 15 -14 2 -68 9 -120 15 -52 6 -109 13
-127 15 -17 3 -86 7 -152 11 -66 3 -133 8 -148 10 -31 5 -779 14 -785 10z"/>
</g>
</svg>
